<svg version="1.1" id="Layer_1" xmlns="http://www.w3.org/2000/svg" xmlns:xlink="http://www.w3.org/1999/xlink" x="0px" y="0px"
	 width="100%" viewBox="0 0 1203 331" enable-background="new 0 0 1203 331" xml:space="preserve">
<path fill="#FFFFFF" opacity="1.000000" stroke="none" 
	d="
M866.000000,332.000000 
	C577.333313,332.000000 289.166656,332.000000 1.000000,332.000000 
	C1.000000,221.666672 1.000000,111.333336 1.000000,1.000000 
	C402.000000,1.000000 803.000000,1.000000 1204.000000,1.000000 
	C1204.000000,111.333336 1204.000000,221.666672 1204.000000,332.000000 
	C1091.500000,332.000000 979.000000,332.000000 866.000000,332.000000 
M47.675438,162.182236 
	C42.723518,176.134964 40.501831,190.477371 41.028942,205.305695 
	C42.598560,249.461151 66.304672,278.529327 104.027496,298.075684 
	C104.946373,298.551819 106.327606,298.135651 108.838570,298.135651 
	C105.931557,296.177612 104.277252,295.075043 102.634697,293.955261 
	C68.203110,270.481659 55.030399,227.763763 70.520035,189.026520 
	C81.577934,161.372360 101.863495,141.869415 127.033958,127.141403 
	C160.417053,107.607941 197.193375,101.040039 235.265213,100.220871 
	C253.752090,99.823097 272.131470,101.264664 290.310364,105.920372 
	C299.536194,88.838631 308.639313,71.984085 317.938690,54.766220 
	C315.355713,54.013813 313.639771,53.416275 311.878998,53.015606 
	C281.677521,46.143051 251.201752,45.697159 220.521164,48.858860 
	C179.041840,53.133396 140.671097,66.078697 106.229500,89.785332 
	C79.858238,107.937042 59.332600,131.021255 47.675438,162.182236 
M85.995689,246.372223 
	C89.658775,273.457825 113.562767,295.217346 126.678970,297.676178 
	C125.218071,296.294159 124.310371,295.472717 123.444206,294.609589 
	C119.914001,291.091827 115.917213,287.921448 112.953033,283.976379 
	C95.302582,260.485260 100.074188,228.881714 123.896194,209.126511 
	C145.173889,191.481293 170.499817,185.134064 197.192169,184.271530 
	C212.730286,183.769455 228.375076,185.865875 243.932938,187.235245 
	C247.277283,187.529602 248.571289,186.600906 249.977203,183.943100 
	C256.587067,171.447571 263.387360,159.052811 270.104645,146.613968 
	C270.785522,145.353165 271.365540,144.037918 272.171509,142.379288 
	C242.938446,136.876068 214.135025,136.011597 185.272095,140.736603 
	C158.879837,145.057129 134.397659,154.096252 114.226860,172.311646 
	C92.578667,191.861206 82.205574,216.015823 85.995689,246.372223 
M947.154480,131.343216 
	C923.694153,96.856987 878.098938,95.894333 852.026733,114.687263 
	C821.059814,137.008316 813.728271,180.941559 835.598389,212.415497 
	C859.510803,246.828552 905.385742,247.070328 930.592041,229.111115 
	C961.675415,206.964615 969.354065,163.296356 947.154480,131.343216 
M546.116089,222.706009 
	C563.093506,183.955917 580.070923,145.205811 597.250732,105.993805 
	C592.299255,105.993805 587.970703,106.264839 583.693970,105.910370 
	C580.096191,105.612167 578.510803,107.034706 577.141479,110.238800 
	C564.087402,140.784302 550.865601,171.258118 537.680359,201.747498 
	C537.010376,203.296753 536.234863,204.800339 535.165833,207.044632 
	C533.884521,204.336121 532.940247,202.437485 532.077820,200.502350 
	C518.622925,170.310516 505.203125,140.102905 491.661224,109.950150 
	C490.963715,108.397057 489.330750,106.296356 487.980286,106.176659 
	C482.920288,105.728111 477.796692,105.997093 472.212952,105.997093 
	C473.123871,108.207718 473.771393,109.886925 474.499512,111.530411 
	C491.118500,149.041153 507.788696,186.529419 524.258179,224.105637 
	C525.164917,226.174362 525.191406,229.293198 524.317688,231.372879 
	C517.306213,248.061874 509.977631,264.617615 502.752594,281.217010 
	C502.143463,282.616486 501.582428,284.036865 500.832886,285.849396 
	C505.833954,285.849396 510.013214,285.607056 514.149353,285.925507 
	C517.504456,286.183807 519.059631,284.991547 520.387024,281.889832 
	C528.751160,262.345978 537.360107,242.906860 546.116089,222.706009 
M751.503662,222.821533 
	C746.379089,222.821533 741.254517,222.821533 735.534546,222.821533 
	C735.534546,168.963257 735.534546,115.602867 735.534546,62.183929 
	C729.309204,62.183929 723.688293,62.183929 717.863281,62.183929 
	C717.863281,121.456123 717.863281,180.536270 717.863281,239.695862 
	C746.610901,239.695862 775.154785,239.695862 803.680542,239.695862 
	C803.680542,233.966553 803.680542,228.553070 803.680542,222.821503 
	C786.428894,222.821503 769.465454,222.821503 751.503662,222.821533 
M630.863831,168.652802 
	C639.337708,173.593445 647.895752,178.396866 656.254333,183.525482 
	C661.385498,186.673874 666.064148,190.414062 668.047180,196.557404 
	C673.113464,212.252274 657.335999,228.059540 640.098633,224.533005 
	C630.903687,222.651840 623.699158,217.511261 617.277710,210.281830 
	C613.641174,214.445450 610.183350,218.404480 606.504761,222.616287 
	C619.580505,237.553467 635.703125,243.263107 654.645996,239.906754 
	C669.603882,237.256470 679.392578,227.576691 683.553833,213.304626 
	C687.724121,199.001556 685.012512,185.537109 672.860840,175.850006 
	C665.640808,170.094315 657.234497,165.831284 649.388367,160.854904 
	C644.900513,158.008530 640.171143,155.439163 636.078918,152.097900 
	C630.265198,147.351074 626.582275,141.166107 628.135498,133.294800 
	C629.550903,126.122177 634.434692,121.539993 641.233826,119.537521 
	C648.396484,117.427986 655.491455,118.532768 661.883728,122.453064 
	C666.236938,125.122818 670.300476,128.264801 674.676453,131.323456 
	C678.044861,127.738640 681.435303,124.130363 685.004395,120.331963 
	C677.025818,112.401131 668.146484,106.379883 657.444580,103.556129 
	C637.947388,98.411705 617.974426,109.942390 613.409607,128.735733 
	C609.681946,144.082062 615.455322,157.583115 630.863831,168.652802 
M396.034424,110.493004 
	C378.866638,124.591614 378.913544,153.429306 400.362274,167.372467 
	C405.649475,170.809540 411.249603,173.761963 416.590454,177.120651 
	C422.484314,180.827087 428.849274,184.102570 433.846161,188.802200 
	C437.032135,191.798645 439.416809,196.901779 439.884644,201.302338 
	C441.393158,215.491806 426.275665,227.482880 411.517609,224.568970 
	C402.157166,222.720764 394.892975,217.425766 388.510223,210.251572 
	C384.775330,214.568146 381.346680,218.530792 377.827698,222.597839 
	C389.084625,236.066452 403.383209,241.402634 420.089355,240.801834 
	C435.805237,240.236664 449.703583,229.383301 454.692230,214.216354 
	C459.494324,199.616592 455.245819,184.285416 442.524048,174.495895 
	C435.334473,168.963394 426.864868,165.127060 419.311584,160.023865 
	C413.454315,156.066513 407.265900,152.060226 402.759277,146.768738 
	C395.927521,138.747177 398.288605,127.924355 407.131378,122.143730 
	C415.570618,116.626915 424.304199,117.721855 432.657257,122.251244 
	C437.261566,124.747917 441.374146,128.151428 445.935394,131.302902 
	C449.242096,127.775711 452.636749,124.154686 457.065765,119.430367 
	C449.549774,114.742203 442.804626,109.507423 435.247009,106.046921 
	C421.879181,99.925987 408.712433,101.387848 396.034424,110.493004 
M1003.643066,238.983322 
	C1009.415466,239.603531 1015.202759,240.857513 1020.957397,240.722321 
	C1036.735352,240.351730 1050.557129,229.509918 1055.606079,214.257233 
	C1060.453857,199.612274 1056.247803,184.323883 1043.500732,174.506012 
	C1036.308716,168.966751 1027.810547,165.157364 1020.273376,160.021927 
	C1014.298340,155.950851 1008.002930,151.789810 1003.442932,146.336578 
	C996.976440,138.603363 999.370544,128.126465 1007.709839,122.400055 
	C1015.879639,116.789978 1024.479614,117.524849 1032.765137,121.857048 
	C1037.688843,124.431534 1042.090210,128.005219 1046.939819,131.273468 
	C1050.255371,127.736053 1053.642700,124.122169 1057.011963,120.527458 
	C1047.916626,110.267494 1034.109497,103.202126 1022.194580,102.596870 
	C1005.926514,101.770493 992.347900,110.349152 986.797058,124.960060 
	C981.408447,139.144180 985.687378,155.174118 998.182617,164.836929 
	C1004.195923,169.487183 1011.095337,172.982590 1017.531738,177.097534 
	C1023.402588,180.850830 1029.793091,184.092621 1034.796509,188.792694 
	C1037.986694,191.789551 1040.384277,196.891953 1040.851929,201.293137 
	C1042.361938,215.504135 1027.240845,227.483551 1012.459961,224.568329 
	C1003.101868,222.722641 995.864441,217.394669 989.458008,210.275757 
	C985.758118,214.513962 982.376160,218.388046 978.876160,222.397324 
	C984.959534,230.902328 993.463745,235.491333 1003.643066,238.983322 
M1116.502808,118.622757 
	C1127.240845,118.650787 1134.841309,125.268791 1142.722046,131.551697 
	C1146.333130,127.687805 1149.703003,124.082108 1153.307251,120.225594 
	C1143.089600,111.022865 1132.603882,103.430260 1118.593262,102.620010 
	C1102.325317,101.679230 1088.685669,110.046410 1082.936035,124.582497 
	C1077.328979,138.758224 1081.738281,154.938477 1094.238159,164.939117 
	C1098.114014,168.040024 1102.452026,170.581390 1106.671509,173.230667 
	C1114.401489,178.084167 1122.678833,182.209534 1129.857666,187.763306 
	C1140.292236,195.835709 1139.701904,210.590759 1129.401611,218.834290 
	C1118.434814,227.611267 1104.546387,226.916580 1092.373413,216.902008 
	C1089.980347,214.933319 1087.785156,212.723984 1085.324341,210.465591 
	C1081.750732,214.561081 1078.369995,218.435471 1075.027100,222.266602 
	C1083.325684,234.299759 1099.538696,241.474014 1116.713257,240.845978 
	C1132.502686,240.268570 1146.648438,229.997131 1151.391724,214.476700 
	C1155.780640,200.116470 1153.333008,184.556458 1139.756470,174.636307 
	C1132.809937,169.560577 1125.107422,165.524734 1117.788940,160.951157 
	C1113.282959,158.135254 1108.579834,155.537521 1104.451904,152.233887 
	C1095.550659,145.110214 1093.468262,135.169312 1098.976318,127.147964 
	C1102.919434,121.405434 1108.618774,118.669884 1116.502808,118.622757 
M228.709961,231.232742 
	C230.944931,227.028198 233.179901,222.823639 235.560120,218.345825 
	C217.735306,213.624390 200.207214,212.677933 182.526978,214.794586 
	C167.689560,216.570877 153.498474,220.384995 140.906982,228.971252 
	C113.855072,247.418243 119.443275,275.679077 135.134918,292.739807 
	C136.458954,294.179352 138.023209,295.397949 139.475876,296.719177 
	C139.100967,293.278381 137.765610,290.668610 136.605057,287.983307 
	C128.667557,269.617401 133.914459,254.686127 151.841736,246.076630 
	C166.125397,239.216965 181.486435,237.472122 197.137527,238.504349 
	C205.728302,239.070923 214.275314,240.300964 223.154114,241.265762 
	C224.799652,238.253128 226.549591,235.049377 228.709961,231.232742 
z"/>
<path fill="#0293CA" opacity="1.000000" stroke="none" 
	d="
M47.806767,161.812744 
	C59.332600,131.021255 79.858238,107.937042 106.229500,89.785332 
	C140.671097,66.078697 179.041840,53.133396 220.521164,48.858860 
	C251.201752,45.697159 281.677521,46.143051 311.878998,53.015606 
	C313.639771,53.416275 315.355713,54.013813 317.938690,54.766220 
	C308.639313,71.984085 299.536194,88.838631 290.310364,105.920372 
	C272.131470,101.264664 253.752090,99.823097 235.265213,100.220871 
	C197.193375,101.040039 160.417053,107.607941 127.033958,127.141403 
	C101.863495,141.869415 81.577934,161.372360 70.520035,189.026520 
	C55.030399,227.763763 68.203110,270.481659 102.634697,293.955261 
	C104.277252,295.075043 105.931557,296.177612 108.838570,298.135651 
	C106.327606,298.135651 104.946373,298.551819 104.027496,298.075684 
	C66.304672,278.529327 42.598560,249.461151 41.028942,205.305695 
	C40.501831,190.477371 42.723518,176.134964 47.806767,161.812744 
z"/>
<path fill="#0293CA" opacity="1.000000" stroke="none" 
	d="
M85.963959,245.934875 
	C82.205574,216.015823 92.578667,191.861206 114.226860,172.311646 
	C134.397659,154.096252 158.879837,145.057129 185.272095,140.736603 
	C214.135025,136.011597 242.938446,136.876068 272.171509,142.379288 
	C271.365540,144.037918 270.785522,145.353165 270.104645,146.613968 
	C263.387360,159.052811 256.587067,171.447571 249.977203,183.943100 
	C248.571289,186.600906 247.277283,187.529602 243.932938,187.235245 
	C228.375076,185.865875 212.730286,183.769455 197.192169,184.271530 
	C170.499817,185.134064 145.173889,191.481293 123.896194,209.126511 
	C100.074188,228.881714 95.302582,260.485260 112.953033,283.976379 
	C115.917213,287.921448 119.914001,291.091827 123.444206,294.609589 
	C124.310371,295.472717 125.218071,296.294159 126.678970,297.676178 
	C113.562767,295.217346 89.658775,273.457825 85.963959,245.934875 
z"/>
<path fill="#3C4149" opacity="1.000000" stroke="none" 
	d="
M947.374023,131.629410 
	C969.354065,163.296356 961.675415,206.964615 930.592041,229.111115 
	C905.385742,247.070328 859.510803,246.828552 835.598389,212.415497 
	C813.728271,180.941559 821.059814,137.008316 852.026733,114.687263 
	C878.098938,95.894333 923.694153,96.856987 947.374023,131.629410 
M934.265381,143.295364 
	C920.959167,124.165596 900.744751,115.619659 880.370667,120.510620 
	C853.070496,127.064240 836.244751,152.899948 841.125244,181.794418 
	C844.350342,200.888550 854.825684,215.104996 873.384766,221.641113 
	C892.732666,228.455109 910.991699,225.486557 926.381775,211.330246 
	C944.399292,194.757095 947.726196,165.826736 934.265381,143.295364 
z"/>
<path fill="#3C4149" opacity="1.000000" stroke="none" 
	d="
M546.002075,223.069580 
	C537.360107,242.906860 528.751160,262.345978 520.387024,281.889832 
	C519.059631,284.991547 517.504456,286.183807 514.149353,285.925507 
	C510.013214,285.607056 505.833954,285.849396 500.832886,285.849396 
	C501.582428,284.036865 502.143463,282.616486 502.752594,281.217010 
	C509.977631,264.617615 517.306213,248.061874 524.317688,231.372879 
	C525.191406,229.293198 525.164917,226.174362 524.258179,224.105637 
	C507.788696,186.529419 491.118500,149.041153 474.499512,111.530411 
	C473.771393,109.886925 473.123871,108.207718 472.212952,105.997093 
	C477.796692,105.997093 482.920288,105.728111 487.980286,106.176659 
	C489.330750,106.296356 490.963715,108.397057 491.661224,109.950150 
	C505.203125,140.102905 518.622925,170.310516 532.077820,200.502350 
	C532.940247,202.437485 533.884521,204.336121 535.165833,207.044632 
	C536.234863,204.800339 537.010376,203.296753 537.680359,201.747498 
	C550.865601,171.258118 564.087402,140.784302 577.141479,110.238800 
	C578.510803,107.034706 580.096191,105.612167 583.693970,105.910370 
	C587.970703,106.264839 592.299255,105.993805 597.250732,105.993805 
	C580.070923,145.205811 563.093506,183.955917 546.002075,223.069580 
z"/>
<path fill="#3D4249" opacity="1.000000" stroke="none" 
	d="
M752.002808,222.821518 
	C769.465454,222.821503 786.428894,222.821503 803.680542,222.821503 
	C803.680542,228.553070 803.680542,233.966553 803.680542,239.695862 
	C775.154785,239.695862 746.610901,239.695862 717.863281,239.695862 
	C717.863281,180.536270 717.863281,121.456123 717.863281,62.183929 
	C723.688293,62.183929 729.309204,62.183929 735.534546,62.183929 
	C735.534546,115.602867 735.534546,168.963257 735.534546,222.821533 
	C741.254517,222.821533 746.379089,222.821533 752.002808,222.821518 
z"/>
<path fill="#3C4149" opacity="1.000000" stroke="none" 
	d="
M630.577393,168.433044 
	C615.455322,157.583115 609.681946,144.082062 613.409607,128.735733 
	C617.974426,109.942390 637.947388,98.411705 657.444580,103.556129 
	C668.146484,106.379883 677.025818,112.401131 685.004395,120.331963 
	C681.435303,124.130363 678.044861,127.738640 674.676453,131.323456 
	C670.300476,128.264801 666.236938,125.122818 661.883728,122.453064 
	C655.491455,118.532768 648.396484,117.427986 641.233826,119.537521 
	C634.434692,121.539993 629.550903,126.122177 628.135498,133.294800 
	C626.582275,141.166107 630.265198,147.351074 636.078918,152.097900 
	C640.171143,155.439163 644.900513,158.008530 649.388367,160.854904 
	C657.234497,165.831284 665.640808,170.094315 672.860840,175.850006 
	C685.012512,185.537109 687.724121,199.001556 683.553833,213.304626 
	C679.392578,227.576691 669.603882,237.256470 654.645996,239.906754 
	C635.703125,243.263107 619.580505,237.553467 606.504761,222.616287 
	C610.183350,218.404480 613.641174,214.445450 617.277710,210.281830 
	C623.699158,217.511261 630.903687,222.651840 640.098633,224.533005 
	C657.335999,228.059540 673.113464,212.252274 668.047180,196.557404 
	C666.064148,190.414062 661.385498,186.673874 656.254333,183.525482 
	C647.895752,178.396866 639.337708,173.593445 630.577393,168.433044 
z"/>
<path fill="#3C4149" opacity="1.000000" stroke="none" 
	d="
M396.300812,110.254395 
	C408.712433,101.387848 421.879181,99.925987 435.247009,106.046921 
	C442.804626,109.507423 449.549774,114.742203 457.065765,119.430367 
	C452.636749,124.154686 449.242096,127.775711 445.935394,131.302902 
	C441.374146,128.151428 437.261566,124.747917 432.657257,122.251244 
	C424.304199,117.721855 415.570618,116.626915 407.131378,122.143730 
	C398.288605,127.924355 395.927521,138.747177 402.759277,146.768738 
	C407.265900,152.060226 413.454315,156.066513 419.311584,160.023865 
	C426.864868,165.127060 435.334473,168.963394 442.524048,174.495895 
	C455.245819,184.285416 459.494324,199.616592 454.692230,214.216354 
	C449.703583,229.383301 435.805237,240.236664 420.089355,240.801834 
	C403.383209,241.402634 389.084625,236.066452 377.827698,222.597839 
	C381.346680,218.530792 384.775330,214.568146 388.510223,210.251572 
	C394.892975,217.425766 402.157166,222.720764 411.517609,224.568970 
	C426.275665,227.482880 441.393158,215.491806 439.884644,201.302338 
	C439.416809,196.901779 437.032135,191.798645 433.846161,188.802200 
	C428.849274,184.102570 422.484314,180.827087 416.590454,177.120651 
	C411.249603,173.761963 405.649475,170.809540 400.362274,167.372467 
	C378.913544,153.429306 378.866638,124.591614 396.300812,110.254395 
z"/>
<path fill="#3C4149" opacity="1.000000" stroke="none" 
	d="
M1003.247803,238.892700 
	C993.463745,235.491333 984.959534,230.902328 978.876160,222.397324 
	C982.376160,218.388046 985.758118,214.513962 989.458008,210.275757 
	C995.864441,217.394669 1003.101868,222.722641 1012.459961,224.568329 
	C1027.240845,227.483551 1042.361938,215.504135 1040.851929,201.293137 
	C1040.384277,196.891953 1037.986694,191.789551 1034.796509,188.792694 
	C1029.793091,184.092621 1023.402588,180.850830 1017.531738,177.097534 
	C1011.095337,172.982590 1004.195923,169.487183 998.182617,164.836929 
	C985.687378,155.174118 981.408447,139.144180 986.797058,124.960060 
	C992.347900,110.349152 1005.926514,101.770493 1022.194580,102.596870 
	C1034.109497,103.202126 1047.916626,110.267494 1057.011963,120.527458 
	C1053.642700,124.122169 1050.255371,127.736053 1046.939819,131.273468 
	C1042.090210,128.005219 1037.688843,124.431534 1032.765137,121.857048 
	C1024.479614,117.524849 1015.879639,116.789978 1007.709839,122.400055 
	C999.370544,128.126465 996.976440,138.603363 1003.442932,146.336578 
	C1008.002930,151.789810 1014.298340,155.950851 1020.273376,160.021927 
	C1027.810547,165.157364 1036.308716,168.966751 1043.500732,174.506012 
	C1056.247803,184.323883 1060.453857,199.612274 1055.606079,214.257233 
	C1050.557129,229.509918 1036.735352,240.351730 1020.957397,240.722321 
	C1015.202759,240.857513 1009.415466,239.603531 1003.247803,238.892700 
z"/>
<path fill="#3C4149" opacity="1.000000" stroke="none" 
	d="
M1116.046631,118.619843 
	C1108.618774,118.669884 1102.919434,121.405434 1098.976318,127.147964 
	C1093.468262,135.169312 1095.550659,145.110214 1104.451904,152.233887 
	C1108.579834,155.537521 1113.282959,158.135254 1117.788940,160.951157 
	C1125.107422,165.524734 1132.809937,169.560577 1139.756470,174.636307 
	C1153.333008,184.556458 1155.780640,200.116470 1151.391724,214.476700 
	C1146.648438,229.997131 1132.502686,240.268570 1116.713257,240.845978 
	C1099.538696,241.474014 1083.325684,234.299759 1075.027100,222.266602 
	C1078.369995,218.435471 1081.750732,214.561081 1085.324341,210.465591 
	C1087.785156,212.723984 1089.980347,214.933319 1092.373413,216.902008 
	C1104.546387,226.916580 1118.434814,227.611267 1129.401611,218.834290 
	C1139.701904,210.590759 1140.292236,195.835709 1129.857666,187.763306 
	C1122.678833,182.209534 1114.401489,178.084167 1106.671509,173.230667 
	C1102.452026,170.581390 1098.114014,168.040024 1094.238159,164.939117 
	C1081.738281,154.938477 1077.328979,138.758224 1082.936035,124.582497 
	C1088.685669,110.046410 1102.325317,101.679230 1118.593262,102.620010 
	C1132.603882,103.430260 1143.089600,111.022865 1153.307251,120.225594 
	C1149.703003,124.082108 1146.333130,127.687805 1142.722046,131.551697 
	C1134.841309,125.268791 1127.240845,118.650787 1116.046631,118.619843 
z"/>
<path fill="#0393CB" opacity="1.000000" stroke="none" 
	d="
M228.504745,231.539185 
	C226.549591,235.049377 224.799652,238.253128 223.154114,241.265762 
	C214.275314,240.300964 205.728302,239.070923 197.137527,238.504349 
	C181.486435,237.472122 166.125397,239.216965 151.841736,246.076630 
	C133.914459,254.686127 128.667557,269.617401 136.605057,287.983307 
	C137.765610,290.668610 139.100967,293.278381 139.475876,296.719177 
	C138.023209,295.397949 136.458954,294.179352 135.134918,292.739807 
	C119.443275,275.679077 113.855072,247.418243 140.906982,228.971252 
	C153.498474,220.384995 167.689560,216.570877 182.526978,214.794586 
	C200.207214,212.677933 217.735306,213.624390 235.560120,218.345825 
	C233.179901,222.823639 230.944931,227.028198 228.504745,231.539185 
z"/>
<path fill="#FEFEFE" opacity="1.000000" stroke="none" 
	d="
M934.483643,143.588943 
	C947.726196,165.826736 944.399292,194.757095 926.381775,211.330246 
	C910.991699,225.486557 892.732666,228.455109 873.384766,221.641113 
	C854.825684,215.104996 844.350342,200.888550 841.125244,181.794418 
	C836.244751,152.899948 853.070496,127.064240 880.370667,120.510620 
	C900.744751,115.619659 920.959167,124.165596 934.483643,143.588943 
z"/>
</svg>